<svg xmlns="http://www.w3.org/2000/svg" fill="none" viewBox="0 0 255 56">
  <path fill="#2D3748" d="M63.25 47.275c.435.037.652.235.652.595a.55.55 0 0 1-.242.483c-.149.1-.378.137-.688.112l-.503-.037c-.992-.075-1.724-.372-2.195-.893-.471-.521-.707-1.309-.707-2.363v-4.67h-1.246c-.211 0-.379-.05-.503-.149a.58.58 0 0 1-.167-.427c0-.186.056-.335.167-.447.124-.111.292-.167.503-.167h1.246v-2.103c0-.235.068-.415.205-.54.136-.136.322-.204.558-.204a.73.73 0 0 1 .54.205c.136.124.204.304.204.54v2.102h2.065c.199 0 .354.056.465.167.124.112.186.26.186.447a.55.55 0 0 1-.186.427c-.111.1-.266.15-.465.15h-2.065v4.744c0 .682.137 1.178.41 1.488.285.298.706.465 1.265.502l.502.038Zm5.84-8.187c2.27 0 3.404 1.191 3.404 3.572v5.061a.73.73 0 0 1-.204.54c-.124.136-.298.204-.521.204a.729.729 0 0 1-.54-.205.73.73 0 0 1-.204-.539v-.893a2.714 2.714 0 0 1-1.08 1.246c-.483.286-1.041.428-1.674.428a3.725 3.725 0 0 1-1.618-.353 2.89 2.89 0 0 1-1.154-.986 2.437 2.437 0 0 1-.428-1.395c0-.683.174-1.21.521-1.582.347-.384.918-.657 1.712-.819.794-.173 1.897-.26 3.311-.26h.41v-.614c0-.744-.155-1.29-.465-1.637-.298-.347-.788-.521-1.47-.521-.844 0-1.7.23-2.568.688-.335.211-.57.317-.707.317a.477.477 0 0 1-.372-.168.62.62 0 0 1-.148-.428c0-.173.05-.322.148-.446.112-.137.286-.273.521-.41.434-.248.924-.44 1.47-.576a6.404 6.404 0 0 1 1.656-.224Zm-.614 8.224c.744 0 1.352-.248 1.823-.744.484-.509.726-1.16.726-1.954v-.54h-.335c-1.092 0-1.923.05-2.493.15-.57.086-.98.241-1.228.464-.236.211-.354.528-.354.95 0 .483.174.886.521 1.209.36.31.806.465 1.34.465Zm7.54 1.153a.842.842 0 0 1-.558-.186c-.137-.136-.205-.322-.205-.558V39.87c0-.236.068-.416.205-.54a.794.794 0 0 1 .558-.204.73.73 0 0 1 .54.204c.136.124.204.304.204.54v7.851c0 .248-.068.434-.205.558-.136.124-.316.186-.54.186Zm0-11.293c-.298 0-.54-.087-.726-.26-.186-.174-.279-.403-.279-.689 0-.273.093-.496.28-.67.185-.173.427-.26.725-.26.297 0 .54.087.725.26.186.174.28.397.28.67 0 .286-.094.515-.28.689-.186.173-.427.26-.725.26Zm4.324 11.293a.842.842 0 0 1-.558-.186c-.137-.136-.205-.322-.205-.558V35.907c0-.236.068-.415.205-.54a.795.795 0 0 1 .558-.204.7.7 0 0 1 .52.205c.15.123.224.303.224.539v11.814c0 .236-.074.422-.223.558a.744.744 0 0 1-.521.186Zm15.952-8.855c.124-.298.329-.447.614-.447.186 0 .353.062.502.186.15.124.224.279.224.465 0 .087-.02.18-.056.28l-3.089 7.813a.93.93 0 0 1-.334.39.848.848 0 0 1-.466.131.911.911 0 0 1-.465-.13.981.981 0 0 1-.316-.391l-2.568-6.53-2.548 6.53a.81.81 0 0 1-.317.39.944.944 0 0 1-.483.131.91.91 0 0 1-.465-.13.928.928 0 0 1-.335-.391l-3.09-7.795a.634.634 0 0 1 .186-.763.887.887 0 0 1 .558-.205c.298 0 .509.15.633.447l2.549 6.865 2.623-6.81a.902.902 0 0 1 .298-.371.785.785 0 0 1 .428-.13c.161 0 .304.043.428.13.136.086.235.21.297.372l2.624 6.79 2.567-6.828Zm4.27 8.855a.843.843 0 0 1-.559-.186c-.136-.136-.204-.322-.204-.558V39.87c0-.236.068-.416.204-.54a.795.795 0 0 1 .559-.204.73.73 0 0 1 .539.204c.137.124.205.304.205.54v7.851c0 .248-.068.434-.205.558-.136.124-.316.186-.539.186Zm0-11.293c-.298 0-.54-.087-.726-.26-.186-.174-.279-.403-.279-.689 0-.273.093-.496.279-.67.186-.173.428-.26.726-.26.297 0 .539.087.725.26a.875.875 0 0 1 .279.67c0 .286-.093.515-.279.689-.186.173-.428.26-.725.26Zm8.119 1.916c2.171 0 3.256 1.197 3.256 3.591v5.042c0 .236-.068.422-.205.558-.124.124-.304.186-.539.186-.236 0-.422-.062-.558-.186-.137-.136-.205-.322-.205-.558v-4.949c0-.843-.167-1.457-.502-1.842-.323-.384-.844-.577-1.563-.577-.831 0-1.495.255-1.991.763-.496.509-.744 1.197-.744 2.065v4.54c0 .236-.068.422-.205.558-.124.124-.304.186-.539.186-.236 0-.422-.062-.558-.186-.137-.136-.205-.322-.205-.558V39.87a.73.73 0 0 1 .205-.54c.136-.136.322-.204.558-.204.223 0 .397.068.521.204.136.137.204.31.204.521v.95c.298-.56.714-.98 1.247-1.266.533-.298 1.141-.447 1.823-.447Zm13.291-3.925c.235 0 .421.068.558.205.136.136.204.31.204.52v11.833a.73.73 0 0 1-.204.54c-.137.136-.323.204-.558.204-.236 0-.422-.068-.559-.205-.124-.136-.186-.316-.186-.539v-1.005a2.976 2.976 0 0 1-1.209 1.321c-.521.31-1.135.465-1.842.465-.794 0-1.494-.198-2.102-.595-.608-.397-1.079-.949-1.414-1.656-.335-.72-.502-1.55-.502-2.493 0-.93.167-1.749.502-2.456.335-.707.806-1.252 1.414-1.637.608-.384 1.308-.577 2.102-.577.707 0 1.321.155 1.842.465.533.31.936.75 1.209 1.322v-4.987c0-.223.062-.396.186-.52.137-.137.323-.205.559-.205Zm-3.498 12.093c.88 0 1.556-.298 2.028-.893.483-.608.725-1.464.725-2.568s-.242-1.953-.725-2.548c-.472-.596-1.148-.894-2.028-.894-.881 0-1.569.298-2.065.894-.484.595-.726 1.432-.726 2.511 0 1.104.242 1.966.726 2.586.496.608 1.184.912 2.065.912Zm10.791 1.246c-.843 0-1.594-.192-2.251-.576a3.935 3.935 0 0 1-1.507-1.638c-.347-.707-.521-1.525-.521-2.455 0-.93.18-1.755.54-2.475a4.112 4.112 0 0 1 1.544-1.674c.657-.397 1.414-.596 2.27-.596.471 0 .936.069 1.395.205.471.124.881.31 1.228.558.223.15.378.298.465.447a.773.773 0 0 1 .149.465c0 .174-.05.316-.149.428a.425.425 0 0 1-.354.167.633.633 0 0 1-.279-.074 2.4 2.4 0 0 1-.26-.15.984.984 0 0 0-.13-.092 5.782 5.782 0 0 0-.931-.502c-.285-.124-.638-.187-1.06-.187-.905 0-1.612.31-2.121.93-.496.608-.744 1.458-.744 2.55 0 1.091.248 1.934.744 2.53.509.595 1.216.893 2.121.893.422 0 .781-.062 1.079-.186.31-.124.62-.292.93-.502a4.5 4.5 0 0 1 .391-.224.736.736 0 0 1 .316-.093c.137 0 .248.056.335.168a.621.621 0 0 1 .149.428c0 .16-.043.31-.13.446-.087.124-.248.267-.484.428a4.59 4.59 0 0 1-1.265.577 5.391 5.391 0 0 1-1.47.204Zm8.214 0c-.57 0-1.116-.068-1.637-.204a4.99 4.99 0 0 1-1.358-.577 2.191 2.191 0 0 1-.484-.41.88.88 0 0 1-.13-.483.57.57 0 0 1 .13-.39.48.48 0 0 1 .372-.168c.149 0 .366.093.652.279.372.223.738.403 1.097.54.372.123.831.186 1.377.186.67 0 1.191-.118 1.563-.354.372-.236.558-.577.558-1.023 0-.273-.068-.49-.205-.651-.136-.174-.372-.323-.707-.447-.335-.136-.825-.273-1.47-.41-1.091-.235-1.872-.551-2.344-.948-.471-.397-.707-.937-.707-1.619 0-.533.149-1.004.447-1.414.298-.409.707-.731 1.228-.967.533-.236 1.135-.354 1.804-.354.484 0 .949.069 1.396.205.459.124.862.304 1.209.54.422.297.633.607.633.93a.6.6 0 0 1-.149.41.458.458 0 0 1-.354.167c-.149 0-.372-.106-.669-.317a5.889 5.889 0 0 0-.987-.52c-.31-.125-.694-.187-1.153-.187-.583 0-1.054.13-1.414.391-.347.26-.521.608-.521 1.042 0 .273.062.496.186.67.137.16.354.31.651.446.31.124.751.248 1.321.372.844.186 1.495.391 1.954.614.471.224.806.496 1.004.819.199.322.298.732.298 1.228 0 .781-.329 1.414-.986 1.897-.657.472-1.526.707-2.605.707Zm8.939 0c-.57 0-1.116-.068-1.637-.204a4.99 4.99 0 0 1-1.358-.577 2.168 2.168 0 0 1-.484-.41.88.88 0 0 1-.13-.483.57.57 0 0 1 .13-.39.478.478 0 0 1 .372-.168c.149 0 .366.093.652.279a6.87 6.87 0 0 0 1.097.54c.372.123.831.186 1.377.186.67 0 1.191-.118 1.563-.354.372-.236.558-.577.558-1.023 0-.273-.068-.49-.205-.651-.136-.174-.372-.323-.707-.447-.335-.136-.825-.273-1.47-.41-1.091-.235-1.872-.551-2.344-.948-.471-.397-.707-.937-.707-1.619 0-.533.149-1.004.447-1.414.297-.409.707-.731 1.228-.967.533-.236 1.135-.354 1.804-.354.484 0 .949.069 1.396.205.459.124.862.304 1.209.54.422.297.633.607.633.93a.6.6 0 0 1-.149.41.458.458 0 0 1-.354.167c-.149 0-.372-.106-.67-.317a5.844 5.844 0 0 0-.986-.52c-.31-.125-.694-.187-1.153-.187-.583 0-1.054.13-1.414.391-.347.26-.521.608-.521 1.042 0 .273.062.496.186.67.137.16.354.31.651.446.31.124.751.248 1.321.372.844.186 1.495.391 1.954.614.471.224.806.496 1.004.819.199.322.298.732.298 1.228 0 .781-.329 1.414-.986 1.897-.657.472-1.526.707-2.605.707Zm18.815-6.009c.161 0 .298.056.409.167a.53.53 0 0 1 .186.41.623.623 0 0 1-.167.428.581.581 0 0 1-.428.167h-3.368v3.349a.578.578 0 0 1-.167.428.557.557 0 0 1-.409.167.558.558 0 0 1-.41-.167.623.623 0 0 1-.167-.428v-3.349h-3.368a.619.619 0 0 1-.427-.167.62.62 0 0 1-.168-.428c0-.161.056-.298.168-.41a.62.62 0 0 1 .427-.167h3.368v-3.349c0-.173.056-.316.167-.428a.53.53 0 0 1 .41-.186.53.53 0 0 1 .409.186.578.578 0 0 1 .167.428v3.35h3.368Zm10.873 6.009a6.43 6.43 0 0 1-1.637-.204 4.982 4.982 0 0 1-1.359-.577 2.158 2.158 0 0 1-.483-.41.88.88 0 0 1-.13-.483.57.57 0 0 1 .13-.39.476.476 0 0 1 .372-.168c.149 0 .366.093.651.279a6.95 6.95 0 0 0 1.098.54c.372.123.831.186 1.376.186.67 0 1.191-.118 1.563-.354.372-.236.558-.577.558-1.023 0-.273-.068-.49-.204-.651-.137-.174-.372-.323-.707-.447-.335-.136-.825-.273-1.47-.41-1.092-.235-1.873-.551-2.344-.948-.472-.397-.707-.937-.707-1.619 0-.533.149-1.004.446-1.414.298-.409.707-.731 1.228-.967.534-.236 1.135-.354 1.805-.354.484 0 .949.069 1.395.205a4 4 0 0 1 1.21.54c.421.297.632.607.632.93a.6.6 0 0 1-.149.41.457.457 0 0 1-.353.167c-.149 0-.372-.106-.67-.317a5.882 5.882 0 0 0-.986-.52c-.31-.125-.695-.187-1.154-.187-.583 0-1.054.13-1.414.391-.347.26-.52.608-.52 1.042 0 .273.062.496.186.67.136.16.353.31.651.446.31.124.75.248 1.321.372.843.186 1.494.391 1.953.614.472.224.806.496 1.005.819.198.322.298.732.298 1.228 0 .781-.329 1.414-.987 1.897-.657.472-1.525.707-2.604.707Zm9.983-1.227c.434.037.651.235.651.595 0 .21-.081.372-.242.483-.149.1-.378.137-.688.112l-.503-.037c-.992-.075-1.724-.372-2.195-.893-.471-.521-.707-1.309-.707-2.363v-4.67h-1.246c-.211 0-.379-.05-.503-.149a.581.581 0 0 1-.167-.427c0-.186.056-.335.167-.447.124-.111.292-.167.503-.167h1.246v-2.103c0-.235.068-.415.205-.54.136-.136.322-.204.558-.204.223 0 .403.068.539.205.137.124.205.304.205.54v2.102h2.065c.199 0 .354.056.465.167.124.112.186.26.186.447a.55.55 0 0 1-.186.427c-.111.1-.266.15-.465.15h-2.065v4.744c0 .682.136 1.178.409 1.488.286.298.707.465 1.265.502l.503.038Zm5.895 1.227c-.856 0-1.613-.192-2.27-.576a3.935 3.935 0 0 1-1.507-1.638c-.347-.719-.521-1.55-.521-2.493 0-.942.174-1.767.521-2.474.36-.72.862-1.271 1.507-1.656.657-.384 1.414-.577 2.27-.577.855 0 1.612.193 2.269.577.658.385 1.16.937 1.507 1.656.36.707.54 1.532.54 2.474 0 .943-.18 1.774-.54 2.493a3.774 3.774 0 0 1-1.507 1.638c-.657.384-1.414.576-2.269.576Zm0-1.246c.893 0 1.575-.292 2.046-.875.484-.595.726-1.457.726-2.586 0-1.104-.242-1.953-.726-2.548-.484-.608-1.166-.912-2.046-.912-.881 0-1.563.304-2.047.912-.484.595-.726 1.444-.726 2.548 0 1.117.236 1.972.707 2.568.484.595 1.173.893 2.066.893Zm11.045-8.13c.521-.038.781.173.781.632 0 .199-.055.36-.167.484-.112.111-.304.18-.577.205l-.558.055c-.831.075-1.451.372-1.86.893-.397.509-.596 1.11-.596 1.805v4.521c0 .248-.068.434-.204.558-.137.124-.317.186-.54.186a.842.842 0 0 1-.558-.186c-.137-.136-.205-.322-.205-.558V39.87c0-.236.075-.416.223-.54a.771.771 0 0 1 .54-.204c.198 0 .366.068.502.204.137.124.205.298.205.521v1.042c.26-.546.626-.961 1.098-1.246a3.805 3.805 0 0 1 1.655-.503l.261-.018Zm9.169.464c.136-.297.353-.446.651-.446.186 0 .353.062.502.186a.58.58 0 0 1 .223.465.596.596 0 0 1-.074.298l-5.228 11.274a.694.694 0 0 1-.279.317.63.63 0 0 1-.354.111.764.764 0 0 1-.502-.186.55.55 0 0 1-.205-.446c0-.1.025-.199.075-.298l1.302-2.81-3.684-7.962a.56.56 0 0 1-.074-.279c0-.186.081-.347.242-.484a.888.888 0 0 1 .558-.204c.124 0 .242.037.354.111.124.075.217.18.279.316l3.107 6.977 3.107-6.94Zm7.82-.502c.794 0 1.495.193 2.103.577.607.385 1.079.93 1.414 1.637.334.707.502 1.526.502 2.456 0 .943-.168 1.774-.502 2.493-.335.707-.807 1.26-1.414 1.656-.608.397-1.309.595-2.103.595-.707 0-1.327-.155-1.86-.465a3.007 3.007 0 0 1-1.191-1.32v1.004a.73.73 0 0 1-.204.54c-.125.136-.304.204-.54.204-.236 0-.422-.068-.558-.205a.727.727 0 0 1-.205-.539V35.888c0-.21.068-.384.205-.52.136-.137.322-.205.558-.205.236 0 .415.068.54.205.136.123.204.297.204.52v4.986c.273-.57.67-1.01 1.191-1.32.533-.31 1.153-.466 1.86-.466Zm-.297 8.168c.88 0 1.562-.304 2.046-.912.484-.62.726-1.482.726-2.586 0-1.079-.242-1.916-.726-2.511-.484-.596-1.166-.894-2.046-.894-.881 0-1.563.298-2.047.894-.471.595-.707 1.444-.707 2.548s.236 1.96.707 2.568c.484.595 1.166.893 2.047.893Zm10.326 1.246c-.856 0-1.613-.192-2.27-.576a3.935 3.935 0 0 1-1.507-1.638c-.347-.719-.521-1.55-.521-2.493 0-.942.174-1.767.521-2.474.36-.72.862-1.271 1.507-1.656.657-.384 1.414-.577 2.27-.577.856 0 1.612.193 2.27.577a3.765 3.765 0 0 1 1.507 1.656c.359.707.539 1.532.539 2.474 0 .943-.18 1.774-.539 2.493a3.786 3.786 0 0 1-1.507 1.638c-.658.384-1.414.576-2.27.576Zm0-1.246c.893 0 1.575-.292 2.046-.875.484-.595.726-1.457.726-2.586 0-1.104-.242-1.953-.726-2.548-.483-.608-1.166-.912-2.046-.912-.881 0-1.563.304-2.047.912-.483.595-.725 1.444-.725 2.548 0 1.117.235 1.972.707 2.568.483.595 1.172.893 2.065.893Zm10.32 1.246c-.856 0-1.613-.192-2.27-.576a3.935 3.935 0 0 1-1.507-1.638c-.347-.719-.521-1.55-.521-2.493 0-.942.174-1.767.521-2.474.36-.72.862-1.271 1.507-1.656.657-.384 1.414-.577 2.27-.577.855 0 1.612.193 2.269.577.658.385 1.16.937 1.507 1.656.36.707.54 1.532.54 2.474 0 .943-.18 1.774-.54 2.493a3.774 3.774 0 0 1-1.507 1.638c-.657.384-1.414.576-2.269.576Zm0-1.246c.893 0 1.575-.292 2.046-.875.484-.595.726-1.457.726-2.586 0-1.104-.242-1.953-.726-2.548-.484-.608-1.166-.912-2.046-.912-.881 0-1.563.304-2.047.912-.484.595-.726 1.444-.726 2.548 0 1.117.236 1.972.707 2.568.484.595 1.173.893 2.066.893Zm13.798-.075c.199.187.298.385.298.596a.66.66 0 0 1-.205.483.602.602 0 0 1-.465.205c-.161 0-.328-.074-.502-.223l-4.856-4.186v3.665c0 .236-.074.422-.223.558a.745.745 0 0 1-.521.186.842.842 0 0 1-.558-.186c-.137-.136-.205-.322-.205-.558V35.907c0-.236.068-.415.205-.54a.795.795 0 0 1 .558-.204c.211 0 .384.068.521.205.149.123.223.303.223.539v7.554l4.447-4.075a.694.694 0 0 1 .502-.223c.186 0 .347.068.484.205a.662.662 0 0 1 .204.483.74.74 0 0 1-.26.558l-3.665 3.275 4.018 3.497ZM64.299 29.765a7.136 7.136 0 0 1-4.2-1.24 6.34 6.34 0 0 1-2.448-3.398l2.55-.983a4.89 4.89 0 0 0 1.667 2.114 4.258 4.258 0 0 0 2.532.778 3.6 3.6 0 0 0 2.411-.762c.302-.266.54-.602.697-.981.156-.38.226-.791.203-1.203a2.47 2.47 0 0 0-.248-1.105 3.312 3.312 0 0 0-.56-.833 3.775 3.775 0 0 0-.967-.67 13.78 13.78 0 0 0-1.08-.518c-.288-.12-.71-.28-1.264-.478a35.59 35.59 0 0 1-1.567-.602 11.363 11.363 0 0 1-1.368-.72 5.038 5.038 0 0 1-1.28-1.013 4.99 4.99 0 0 1-.765-1.329 4.937 4.937 0 0 1-.217-2.895 4.773 4.773 0 0 1 1.441-2.482C60.881 10.482 62.298 10 64.087 10c1.498 0 2.728.345 3.691 1.034a4.996 4.996 0 0 1 1.944 2.758l-2.504.875a3.018 3.018 0 0 0-1.224-1.406 3.924 3.924 0 0 0-2.12-.526 3.168 3.168 0 0 0-2.048.6 2 2 0 0 0-.57.751 2.093 2.093 0 0 0-.171.942c.002.249.054.494.153.72.099.225.242.426.42.59.346.357.753.643 1.2.846.415.183 1.052.426 1.903.737.52.201.918.349 1.16.451.241.103.612.266 1.108.503.39.181.766.396 1.123.64.32.242.626.502.918.78.314.285.582.621.796.995.203.389.36.802.468 1.23.134.502.2 1.02.196 1.54 0 1.786-.583 3.182-1.748 4.19-1.165 1.008-2.66 1.513-4.483 1.515Zm16.716-.32-6.259-19.112h2.92l4.147 13.318c.23.716.421 1.446.576 2.184a21.07 21.07 0 0 1 .572-2.184l4.095-13.318h2.895l-6.234 19.105-2.712.007Zm14.474 0V10.333h11.323v2.675h-8.609v5.24h5.555v2.674h-5.555v5.83h9.182v2.674l-11.897.019Zm18.803 0V10.333h2.715V26.71h8.918v2.73l-11.633.006Zm21.856-16.377v16.37h-2.712V13.062h-5.163v-2.729h13.032v2.729l-5.157.006Zm10.773 16.377V10.333h11.324v2.675h-8.613v5.24h5.555v2.674h-5.555v5.83h9.182v2.674l-11.893.019Z"/>
  <g filter="url(#a)">
    <mask id="b" width="40" height="50" x="3" y="2" maskUnits="userSpaceOnUse" style="mask-type:alpha">
      <path fill="#fff" d="M4.537 48.073 3.002 6.803a2.505 2.505 0 0 1 2.334-2.604l34.79-2.194a2.5 2.5 0 0 1 2.647 2.509v44.972A2.503 2.503 0 0 1 40.281 52c-.037 0-.074 0-.111-.002L6.915 50.49a2.503 2.503 0 0 1-2.378-2.417Z"/>
    </mask>
    <g mask="url(#b)">
      <path fill="#FED7E2" d="M4.537 48.073 3.002 6.803a2.505 2.505 0 0 1 2.334-2.604l34.79-2.194a2.5 2.5 0 0 1 2.647 2.509v44.972A2.503 2.503 0 0 1 40.281 52c-.037 0-.074 0-.111-.002L6.915 50.49a2.503 2.503 0 0 1-2.378-2.417Z"/>
      <path fill="#FF4785" d="m32.07 9.653.318-7.181L38.77 2l.275 7.406c.01.258-.205.474-.479.483a.518.518 0 0 1-.324-.1L35.78 7.965l-2.914 2.08a.518.518 0 0 1-.696-.09.448.448 0 0 1-.1-.302Z"/>
    </g>
  </g>
  <path fill="url(#c)" fill-rule="evenodd" d="M14.697 12.175c-2.31 0-3.754 1.145-4.332 3.434.867-1.144 1.877-1.574 3.033-1.287.659.163 1.13.637 1.651 1.161.85.855 1.833 1.844 3.98 1.844 2.31 0 3.754-1.145 4.332-3.435-.866 1.145-1.877 1.574-3.032 1.288-.66-.163-1.13-.637-1.652-1.162-.85-.854-1.832-1.843-3.98-1.843Zm-4.332 5.152c-2.31 0-3.754 1.144-4.332 3.434.867-1.145 1.878-1.574 3.033-1.288.659.163 1.13.637 1.651 1.162.85.854 1.833 1.843 3.98 1.843 2.31 0 3.755-1.145 4.332-3.434-.866 1.145-1.877 1.574-3.032 1.288-.66-.164-1.13-.637-1.652-1.162-.85-.855-1.832-1.843-3.98-1.843Z" clip-rule="evenodd"/>
  <path fill="url(#d)" fill-rule="evenodd" d="M30.788 31.845c-2.31 0-3.755 1.144-4.332 3.434.866-1.145 1.877-1.574 3.032-1.288.66.163 1.13.637 1.652 1.162.849.854 1.832 1.843 3.98 1.843 2.31 0 3.754-1.145 4.331-3.434-.866 1.144-1.877 1.574-3.032 1.288-.66-.164-1.13-.638-1.652-1.162-.849-.855-1.832-1.844-3.98-1.844Zm-4.332 5.151c-2.31 0-3.755 1.145-4.332 3.434.866-1.145 1.877-1.574 3.032-1.288.66.164 1.13.638 1.652 1.162.85.855 1.832 1.843 3.98 1.843 2.31 0 3.754-1.144 4.331-3.434-.866 1.145-1.877 1.574-3.032 1.288-.659-.163-1.13-.637-1.652-1.162-.849-.854-1.832-1.843-3.98-1.843Z" clip-rule="evenodd"/>
  <path fill="#FF3E00" d="M33.302 16.078c-2.701-3.9-8.036-5.055-11.893-2.576l-6.773 4.355a7.797 7.797 0 0 0-2.303 2.247 7.876 7.876 0 0 0-1.208 2.995 8.328 8.328 0 0 0 .805 5.303 7.888 7.888 0 0 0-1.161 2.93 8.424 8.424 0 0 0 1.415 6.321c2.701 3.9 8.036 5.055 11.893 2.576l6.773-4.337a7.824 7.824 0 0 0 2.301-2.248 7.9 7.9 0 0 0 1.21-2.993 8.325 8.325 0 0 0-.807-5.301 7.938 7.938 0 0 0 1.163-2.93 8.434 8.434 0 0 0-1.415-6.321"/>
  <path fill="#fff" d="M20.747 38.03a5.338 5.338 0 0 1-3.225-.165 5.39 5.39 0 0 1-2.551-1.997 5.038 5.038 0 0 1-.85-3.8c.039-.213.092-.425.161-.63l.128-.394.348.262c.8.59 1.693 1.038 2.64 1.326l.26.076-.023.262c-.025.36.075.716.283 1.01.19.274.458.483.77.6a1.546 1.546 0 0 0 1.386-.134l6.763-4.356a1.412 1.412 0 0 0 .636-.954 1.526 1.526 0 0 0-.26-1.145 1.61 1.61 0 0 0-1.74-.65 1.47 1.47 0 0 0-.415.184l-2.597 1.664a4.938 4.938 0 0 1-1.374.608 5.336 5.336 0 0 1-3.219-.167 5.389 5.389 0 0 1-2.547-1.993 5.046 5.046 0 0 1-.844-3.8 4.74 4.74 0 0 1 .726-1.805 4.695 4.695 0 0 1 1.386-1.355l6.783-4.355a4.925 4.925 0 0 1 1.366-.608 5.333 5.333 0 0 1 3.224.164 5.385 5.385 0 0 1 2.55 1.998 5.037 5.037 0 0 1 .69 4.436l-.13.393-.345-.262a8.742 8.742 0 0 0-2.649-1.336l-.26-.076.024-.262a1.546 1.546 0 0 0-.275-1.017 1.604 1.604 0 0 0-1.73-.631 1.44 1.44 0 0 0-.415.183l-6.776 4.347a1.42 1.42 0 0 0-.637.952 1.543 1.543 0 0 0 .26 1.147 1.61 1.61 0 0 0 1.727.65c.147-.04.287-.102.416-.183l2.597-1.662c.424-.274.889-.48 1.376-.61a5.33 5.33 0 0 1 3.224.163 5.382 5.382 0 0 1 2.55 1.996 5.044 5.044 0 0 1 .852 3.8 4.742 4.742 0 0 1-.726 1.805 4.695 4.695 0 0 1-1.386 1.356l-6.776 4.355a4.96 4.96 0 0 1-1.376.61Z"/>
  <defs>
    <linearGradient id="c" x1="5.552" x2="23.28" y1="12.175" y2="22.489" gradientUnits="userSpaceOnUse">
      <stop stop-color="#2298BD"/>
      <stop offset="1" stop-color="#0ED7B5"/>
    </linearGradient>
    <linearGradient id="d" x1="21.642" x2="39.371" y1="31.845" y2="42.159" gradientUnits="userSpaceOnUse">
      <stop stop-color="#2298BD"/>
      <stop offset="1" stop-color="#0ED7B5"/>
    </linearGradient>
    <filter id="a" width="45.773" height="56" x="0" y="0" color-interpolation-filters="sRGB" filterUnits="userSpaceOnUse">
      <feFlood flood-opacity="0" result="BackgroundImageFix"/>
      <feColorMatrix in="SourceAlpha" result="hardAlpha" values="0 0 0 0 0 0 0 0 0 0 0 0 0 0 0 0 0 0 127 0"/>
      <feOffset dy="1"/>
      <feGaussianBlur stdDeviation="1.5"/>
      <feColorMatrix values="0 0 0 0 0 0 0 0 0 0 0 0 0 0 0 0 0 0 0.1 0"/>
      <feBlend in2="BackgroundImageFix" result="effect1_dropShadow_1119_1502"/>
      <feColorMatrix in="SourceAlpha" result="hardAlpha" values="0 0 0 0 0 0 0 0 0 0 0 0 0 0 0 0 0 0 127 0"/>
      <feOffset dy="1"/>
      <feGaussianBlur stdDeviation="1"/>
      <feColorMatrix values="0 0 0 0 0 0 0 0 0 0 0 0 0 0 0 0 0 0 0.06 0"/>
      <feBlend in2="effect1_dropShadow_1119_1502" result="effect2_dropShadow_1119_1502"/>
      <feBlend in="SourceGraphic" in2="effect2_dropShadow_1119_1502" result="shape"/>
    </filter>
  </defs>
</svg>
