<svg xmlns="http://www.w3.org/2000/svg" fill="none" viewBox="0 0 556 312">
  <g clip-path="url(#a)">
    <rect width="554.927" height="310.829" x=".537" y=".585" fill="#F8FAFC" rx="10"/>
    <path stroke="#FFF5EC" stroke-width="2" d="M.537 161.612c408.604-2.287 384.585 143.827 821.212 148.402"/>
    <path stroke="#FFE9D3" stroke-width="2" d="M.537 177.362c408.604-2.044 384.585 128.562 821.212 132.652"/>
    <path stroke="#FFCEA5" stroke-width="2" d="M.537 194.516c408.604-1.781 384.585 111.937 821.212 115.498"/>
    <path stroke="#FFAC6D" stroke-width="2" d="M.537 210.525c408.604-1.533 384.585 96.421 821.212 99.489"/>
    <path stroke="#FF7D32" stroke-width="2" d="M.537 227.679c408.604-1.27 384.585 79.797 821.212 82.335"/>
    <path stroke="#FF590A" stroke-width="2" d="M.537 242.545c408.604-1.04 384.585 65.389 821.212 67.469"/>
    <path stroke="#FF3E00" stroke-width="2" d="M.537 259.126c408.604-.784 384.585 49.319 821.212 50.888"/>
    <path stroke="#CC2902" stroke-width="2" d="M.537 276.279c408.604-.52 384.585 32.695 821.212 33.735"/>
    <path stroke="#A1210B" stroke-width="2" d="M.537 293.432c408.604-.255 384.585 16.07 821.212 16.582"/>
    <path stroke="#821E0C" stroke-width="2" d="M.537 310.014c408.604-.009 384.585.554 821.212.571"/>
    <path stroke="#FFF5EC" stroke-width="2" d="M632.749 176.558C224.144 178.846 248.163 32.732-188.464 28.157"/>
    <path stroke="#FFE9D3" stroke-width="2" d="M632.749 160.808C224.144 162.853 248.163 32.246-188.464 28.157"/>
    <path stroke="#FFCEA5" stroke-width="2" d="M632.749 143.654C224.144 145.435 248.163 31.717-188.464 28.156"/>
    <path stroke="#FFAC6D" stroke-width="2" d="M632.749 127.645c-408.605 1.534-384.586-96.421-821.213-99.488"/>
    <path stroke="#FF7D32" stroke-width="2" d="M632.749 110.492c-408.605 1.269-384.586-79.797-821.213-82.336"/>
    <path stroke="#FF590A" stroke-width="2" d="M632.749 95.625c-408.605 1.04-384.586-65.389-821.213-67.469"/>
    <path stroke="#FF3E00" stroke-width="2" d="M632.749 79.044c-408.605.785-384.586-49.319-821.213-50.888"/>
    <path stroke="#CC2902" stroke-width="2" d="M632.749 61.891c-408.605.52-384.586-32.694-821.213-33.734"/>
    <path stroke="#A1210B" stroke-width="2" d="M632.749 44.738c-408.605.256-384.586-16.07-821.213-16.581"/>
    <path stroke="#821E0C" stroke-width="2" d="M632.749 28.157c-408.605.008-384.586-.555-821.213-.572"/>
    <path fill="#E2E2E1" d="M555.444 27.005V5.65a5.067 5.067 0 0 0-5.068-5.065H5.605A5.068 5.068 0 0 0 .537 5.65v21.376h554.907v-.021Z"/>
    <path fill="#70B34A" d="M505.182 13.795a5.703 5.703 0 0 1-11.404 0 5.703 5.703 0 0 1 11.404 0Z"/>
    <path fill="#DDAA54" d="M524.464 13.795a5.703 5.703 0 0 1-11.404 0 5.703 5.703 0 0 1 11.404 0Z"/>
    <path fill="#D5655D" d="M543.829 13.795a5.703 5.703 0 0 1-11.404 0 5.703 5.703 0 0 1 5.702-5.697 5.69 5.69 0 0 1 5.702 5.697Z"/>
    <path fill="#000" fill-rule="evenodd" d="M262.095 151h12.619v2.533h2.524V189h-12.619v-2.533h-2.524V177.6h-7.571V189h-12.619v-2.533h-2.524V151H252v2.533h2.524v8.867h7.571V151Zm-21.452 1.267h10.095V162.4h-10.095v-10.133Zm11.357 11.4V173.8h10.095v-10.133H252Zm11.357 11.4h10.095V185.2h-10.095v-10.133Zm10.095-11.4V173.8h-10.095v-10.133h10.095Zm0-11.4V162.4h-10.095v-10.133h10.095ZM250.738 173.8v-10.133h-10.095V173.8h10.095Zm0 1.267h-10.095V185.2h10.095v-10.133ZM279.762 151h12.619v2.533h2.524V173.8h7.571V151h12.619v2.533h2.524V189h-35.333v-2.533h-2.524V151Zm11.357 22.8v-10.133h-10.095V173.8h10.095Zm11.357 1.267h-10.095V185.2h10.095v-10.133Zm1.262-1.267v-10.133h10.095V173.8h-10.095Zm0-11.4v-10.133h10.095V162.4h-10.095Zm10.095 12.667h-10.095V185.2h10.095v-10.133ZM291.119 185.2h-10.095v-10.133h10.095V185.2Zm-10.095-22.8h10.095v-10.133h-10.095V162.4Zm39.119-11.4v35.467h2.524V189H358v-35.467h-2.524V151h-35.333Zm11.357 12.667V173.8h-10.095v-10.133H331.5Zm1.262 10.133v-10.133h10.095V173.8h-10.095Zm21.452-11.4h-10.095v-10.133h10.095V162.4Zm-10.095 1.267h10.095V173.8h-10.095v-10.133Zm0 11.4h10.095V185.2h-10.095v-10.133Zm-11.357 0h10.095V185.2h-10.095v-10.133ZM331.5 185.2v-10.133h-10.095V185.2H331.5Zm0-32.933V162.4h-10.095v-10.133H331.5Zm11.357 10.133h-10.095v-10.133h10.095V162.4Z" clip-rule="evenodd"/>
    <path fill="#fff" d="M250.738 152.267h-10.095V162.4h10.095v-10.133Z"/>
    <path fill="#FF3E00" d="M250.738 163.667V173.8h-10.095v-10.133h10.095Z"/>
    <path fill="#fff" d="M252 173.8v-10.133h10.095V173.8H252Z"/>
    <path fill="#FF3E00" d="M273.452 173.8v-10.133h-10.095V173.8h10.095Z"/>
    <path fill="#fff" d="M273.452 162.4v-10.133h-10.095V162.4h10.095Zm-32.809 12.667h10.095V185.2h-10.095v-10.133Zm32.809 0h-10.095V185.2h10.095v-10.133Zm17.667-12.667h-10.095v-10.133h10.095V162.4Z"/>
    <path fill="#FF3E00" d="M291.119 163.667V173.8h-10.095v-10.133h10.095Zm12.619 0V173.8h10.095v-10.133h-10.095Zm-11.357 11.4h10.095V185.2h-10.095v-10.133Z"/>
    <path fill="#fff" d="M303.738 152.267V162.4h10.095v-10.133h-10.095Zm0 22.8h10.095V185.2h-10.095v-10.133ZM281.024 185.2h10.095v-10.133h-10.095V185.2Zm50.476-22.8v-10.133h-10.095V162.4H331.5Zm1.262 1.267V173.8h10.095v-10.133h-10.095Zm21.452 11.4h-10.095V185.2h10.095v-10.133ZM344.119 162.4h10.095v-10.133h-10.095V162.4ZM331.5 175.067V185.2h-10.095v-10.133H331.5Z"/>
    <path fill="#FF3E00" d="M331.5 173.8v-10.133h-10.095V173.8H331.5Zm1.262-11.4h10.095v-10.133h-10.095V162.4Zm21.452 1.267h-10.095V173.8h10.095v-10.133Zm-11.357 11.4h-10.095V185.2h10.095v-10.133Z"/>
    <path fill="#fff" d="M224.902 160.323c-2.112-3.034-6.283-3.933-9.299-2.005l-5.296 3.389a6.116 6.116 0 0 0-2.746 4.085 6.453 6.453 0 0 0 .631 4.124 6.151 6.151 0 0 0-.909 2.28 6.523 6.523 0 0 0 1.107 4.915c2.112 3.035 6.283 3.934 9.298 2.005l5.297-3.388a6.093 6.093 0 0 0 2.745-4.086 6.446 6.446 0 0 0-.63-4.124c.453-.69.762-1.466.908-2.279a6.522 6.522 0 0 0-1.106-4.916Z"/>
    <path fill="#000" d="M215.086 177.397a4.206 4.206 0 0 1-4.516-1.68 3.921 3.921 0 0 1-.665-2.956c.03-.169.073-.335.126-.497l.1-.305.271.2a6.848 6.848 0 0 0 2.072 1.039l.197.06-.018.197c-.024.281.052.561.214.791.147.214.357.377.6.467.243.091.508.105.759.039.115-.031.225-.079.325-.143l5.297-3.389a1.098 1.098 0 0 0 .498-.74 1.194 1.194 0 0 0-.201-.891 1.265 1.265 0 0 0-1.36-.506 1.15 1.15 0 0 0-.325.143l-2.021 1.293a3.85 3.85 0 0 1-1.076.474 4.193 4.193 0 0 1-4.515-1.68 3.9 3.9 0 0 1-.63-1.41 3.945 3.945 0 0 1-.036-1.546 3.67 3.67 0 0 1 1.651-2.456l5.297-3.389a3.85 3.85 0 0 1 1.076-.474 4.185 4.185 0 0 1 2.521.127c.807.3 1.504.842 1.995 1.553a3.914 3.914 0 0 1 .665 2.956 3.68 3.68 0 0 1-.127.496l-.099.306-.272-.2a6.805 6.805 0 0 0-2.072-1.04l-.197-.06.019-.197c.023-.28-.052-.56-.214-.79a1.263 1.263 0 0 0-1.36-.507 1.153 1.153 0 0 0-.325.144l-5.297 3.388a1.107 1.107 0 0 0-.497.74 1.18 1.18 0 0 0 .2.891 1.262 1.262 0 0 0 1.36.507 1.14 1.14 0 0 0 .325-.144l2.021-1.292a3.836 3.836 0 0 1 1.076-.475 4.2 4.2 0 0 1 4.516 1.68 3.919 3.919 0 0 1 .665 2.956 3.676 3.676 0 0 1-1.651 2.457l-5.296 3.388a3.849 3.849 0 0 1-1.076.475Z"/>
    <path fill="#000" fill-rule="evenodd" d="M199 151h35.333v2.533h2.524V189h-35.333v-2.533H199V151Zm34.071 1.267h-32.809V185.2h32.809v-32.933Z" clip-rule="evenodd"/>
    <path fill="#FF3E00" d="M200.262 152.267h32.809V185.2h-32.809v-32.933Z"/>
    <path fill="#fff" d="M224.901 160.325c-2.112-3.035-6.283-3.934-9.299-2.005l-5.296 3.388a6.093 6.093 0 0 0-2.745 4.086 6.44 6.44 0 0 0 .631 4.124 6.113 6.113 0 0 0-.909 2.279 6.522 6.522 0 0 0 1.106 4.916c2.112 3.034 6.283 3.933 9.299 2.005l5.296-3.389a6.116 6.116 0 0 0 2.746-4.085 6.453 6.453 0 0 0-.631-4.124 6.132 6.132 0 0 0 .908-2.28 6.522 6.522 0 0 0-1.106-4.915Z"/>
    <path fill="#000" fill-rule="evenodd" d="M215.602 158.32c3.016-1.929 7.187-1.03 9.299 2.005a6.51 6.51 0 0 1 1.106 4.915 6.132 6.132 0 0 1-.908 2.28 6.453 6.453 0 0 1 .631 4.124 6.116 6.116 0 0 1-2.746 4.085l-5.296 3.389c-3.016 1.928-7.187 1.029-9.299-2.005a6.514 6.514 0 0 1-1.106-4.916 6.113 6.113 0 0 1 .909-2.279 6.44 6.44 0 0 1-.631-4.124 6.11 6.11 0 0 1 2.745-4.086l5.296-3.388Zm-9.283 7.249a7.37 7.37 0 0 1 3.312-4.931l5.293-3.386c3.613-2.311 8.528-1.216 11.008 2.341a7.799 7.799 0 0 1 1.318 5.869v.003a7.432 7.432 0 0 1-.728 2.124 7.724 7.724 0 0 1 .45 4.278 7.369 7.369 0 0 1-3.312 4.932l-.004.002-5.29 3.385c-3.612 2.31-8.527 1.216-11.008-2.342a7.806 7.806 0 0 1-1.318-5.869l.001-.003c.134-.742.38-1.459.728-2.124a7.71 7.71 0 0 1-.45-4.279Z" clip-rule="evenodd"/>
    <path fill="#000" d="M215.085 177.398a4.202 4.202 0 0 1-4.516-1.68 3.926 3.926 0 0 1-.665-2.956c.031-.168.073-.334.126-.496l.1-.306.272.2a6.786 6.786 0 0 0 2.071 1.039l.197.06-.018.198c-.024.28.052.56.214.79a1.262 1.262 0 0 0 1.359.507c.116-.031.225-.08.326-.144l5.296-3.388a1.11 1.11 0 0 0 .487-1.206 1.266 1.266 0 0 0-1.55-.932 1.18 1.18 0 0 0-.325.143l-2.021 1.294a3.856 3.856 0 0 1-1.075.474 4.2 4.2 0 0 1-4.516-1.68 3.921 3.921 0 0 1-.665-2.956 3.661 3.661 0 0 1 1.651-2.457l5.296-3.388a3.823 3.823 0 0 1 1.076-.475 4.2 4.2 0 0 1 4.516 1.68 3.921 3.921 0 0 1 .665 2.956 3.848 3.848 0 0 1-.126.497l-.1.305-.271-.2a6.826 6.826 0 0 0-2.072-1.039l-.197-.06.018-.197a1.197 1.197 0 0 0-.214-.791 1.262 1.262 0 0 0-1.359-.506c-.116.03-.225.079-.326.143l-5.296 3.388a1.101 1.101 0 0 0-.498.741 1.175 1.175 0 0 0 .2.891 1.262 1.262 0 0 0 1.36.506c.115-.03.225-.079.326-.143l2.021-1.293a3.856 3.856 0 0 1 1.075-.474 4.202 4.202 0 0 1 4.516 1.68 3.926 3.926 0 0 1 .665 2.956 3.667 3.667 0 0 1-1.651 2.457l-5.296 3.388a3.862 3.862 0 0 1-1.076.474Z"/>
  </g>
  <rect width="553.927" height="309.829" x="1.037" y="1.085" stroke="#E2E8F0" rx="9.5"/>
  <defs>
    <clipPath id="a">
      <rect width="554.927" height="310.829" x=".537" y=".585" fill="#fff" rx="10"/>
    </clipPath>
  </defs>
</svg>
