<svg width="68" height="81" viewBox="0 0 68 81" fill="none" xmlns="http://www.w3.org/2000/svg">
<path d="M60.1646 13.542C53.4702 3.96055 40.2487 1.12057 30.689 7.2114L13.8997 17.912C11.6316 19.3389 9.68616 21.2233 8.18778 23.4448C6.6894 25.6663 5.67103 28.176 5.19775 30.8134C4.3969 35.2561 5.10083 39.839 7.19809 43.8365C5.76099 46.0166 4.78083 48.4654 4.31685 51.0349C3.83854 53.7255 3.90231 56.4845 4.50442 59.1501C5.10652 61.8157 6.23483 64.3343 7.82319 66.5581C14.519 76.1404 27.7406 78.9792 37.2989 72.8887L54.0882 62.1881C56.3564 60.7613 58.3019 58.877 59.8003 56.6555C61.2987 54.4339 62.317 51.9242 62.7901 49.2866C63.5907 44.844 62.8873 40.2612 60.791 36.2632C62.2277 34.0832 63.2074 31.6345 63.671 29.0652C64.1496 26.3746 64.086 23.6155 63.4839 20.9498C62.8818 18.2842 61.7533 15.7656 60.1646 13.542Z" fill="white"/>
<path fill-rule="evenodd" clip-rule="evenodd" d="M30.689 7.21142C40.2487 1.12059 53.4702 3.96057 60.1646 13.542C61.7533 15.7657 62.8818 18.2842 63.4839 20.9499C64.086 23.6155 64.1496 26.3746 63.671 29.0652C63.2074 31.6345 62.2277 34.0832 60.791 36.2632C62.8873 40.2612 63.5907 44.844 62.7901 49.2866C62.317 51.9242 61.2987 54.4339 59.8003 56.6555C58.3019 58.877 56.3564 60.7614 54.0882 62.1881L37.2989 72.8887C27.7406 78.9792 14.519 76.1404 7.82319 66.5581C6.23483 64.3343 5.10652 61.8158 4.50442 59.1501C3.90231 56.4845 3.83854 53.7255 4.31685 51.0349C4.78083 48.4654 5.76099 46.0166 7.19809 43.8366C5.10083 39.839 4.3969 35.2561 5.19775 30.8134C5.67103 28.176 6.6894 25.6663 8.18778 23.4448C9.68616 21.2233 11.6316 19.3389 13.8997 17.912L30.689 7.21142ZM1.26092 30.1054C1.8326 26.9208 3.06235 23.8905 4.87161 21.2081C6.67887 18.5286 9.02464 16.2552 11.7593 14.5328L28.5391 3.83828C39.9914 -3.45833 55.5688 -0.000680923 63.4316 11.2339C65.3234 13.8868 66.6676 16.8901 67.3856 20.0686C68.105 23.2538 68.1811 26.5507 67.6092 29.7657L67.6074 29.7754C67.1844 32.1202 66.4052 34.3818 65.3007 36.4829C67.0453 40.7443 67.5489 45.4302 66.7272 49.9928C66.1559 53.1782 64.9261 56.2093 63.1165 58.8922C61.3092 61.5716 58.9634 63.845 56.2286 65.5672C56.2251 65.5695 56.2215 65.5717 56.2179 65.574L39.4488 76.2618C27.9978 83.5583 12.4203 80.1016 4.55616 68.8661C2.66463 66.2131 1.32062 63.2098 0.602712 60.0314C-0.116723 56.8464 -0.192918 53.5497 0.378597 50.3348L0.380494 50.3241C0.803887 47.9794 1.58334 45.718 2.68798 43.617C0.942413 39.3554 0.438639 34.6686 1.26092 30.1054Z" fill="black"/>
<path d="M29.0487 67.4595C26.4066 68.1464 23.6174 68.006 21.0577 67.0571C18.4981 66.1083 16.2912 64.3968 14.7353 62.1538C13.7799 60.8166 13.1012 59.302 12.739 57.699C12.3768 56.0959 12.3384 54.4367 12.6261 52.8186C12.7235 52.2874 12.8576 51.7635 13.0273 51.2508L13.3435 50.2866L14.2036 50.9184C16.1901 52.378 18.4113 53.4878 20.7713 54.1999L21.3953 54.3892L21.3378 55.0119C21.2616 55.8979 21.5015 56.7823 22.015 57.5083C22.4833 58.1839 23.1476 58.6996 23.9183 58.9857C24.689 59.2717 25.529 59.3144 26.3247 59.1078C26.6895 59.0103 27.0373 58.8575 27.3559 58.6546L44.1452 47.9552C44.556 47.6965 44.9085 47.3551 45.1801 46.9527C45.4517 46.5503 45.6365 46.0958 45.7227 45.618C45.8089 45.1303 45.797 44.6303 45.6879 44.1472C45.5788 43.6641 45.3745 43.2076 45.087 42.8043C44.6185 42.1285 43.9539 41.6126 43.1829 41.3264C42.412 41.0402 41.5718 40.9974 40.7757 41.2038C40.4113 41.3013 40.064 41.4541 39.7458 41.6567L33.3389 45.7409C32.2854 46.4107 31.1357 46.9156 29.9297 47.238C27.2876 47.925 24.4983 47.7846 21.9385 46.8358C19.3787 45.8869 17.1718 44.1754 15.6158 41.9323C14.6604 40.5951 13.9817 39.0805 13.6196 37.4775C13.2574 35.8744 13.219 34.2152 13.5067 32.5971C13.7913 31.0112 14.4037 29.502 15.3048 28.1663C16.206 26.8305 17.3759 25.6975 18.7399 24.8398L35.5282 14.1395C36.5822 13.4686 37.7327 12.963 38.9398 12.6405C41.5819 11.9536 44.3711 12.094 46.9308 13.0429C49.4905 13.9917 51.6973 15.7032 53.2533 17.9463C54.2087 19.2835 54.8874 20.798 55.2496 22.4011C55.6118 24.0041 55.6501 25.6634 55.3624 27.2814C55.2646 27.8126 55.1306 28.3364 54.9612 28.8493L54.645 29.8134L53.7853 29.1826C51.799 27.7221 49.5776 26.6119 47.2173 25.8998L46.5933 25.7104L46.6507 25.0876C46.7264 24.2017 46.4866 23.3176 45.9736 22.5914C45.5053 21.9157 44.841 21.4 44.0703 21.1139C43.2996 20.8279 42.4596 20.7852 41.6639 20.9918C41.2991 21.0893 40.9513 21.2422 40.6327 21.445L23.843 32.1448C23.4322 32.4033 23.0797 32.7447 22.8083 33.1472C22.5368 33.5496 22.3523 34.0043 22.2665 34.4821C22.1798 34.9697 22.1913 35.4698 22.3002 35.953C22.4092 36.4362 22.6134 36.8928 22.901 37.2961C23.3695 37.9719 24.0341 38.4877 24.8051 38.7739C25.576 39.0601 26.4162 39.103 27.2123 38.8966C27.577 38.7989 27.9248 38.646 28.2435 38.4434L34.6495 34.3607C35.7026 33.69 36.8522 33.1847 38.0584 32.8623C40.7005 32.1754 43.4898 32.3158 46.0495 33.2647C48.6093 34.2135 50.8162 35.925 52.3722 38.1681C53.3276 39.5053 54.0063 41.0199 54.3684 42.6229C54.7306 44.226 54.769 45.8852 54.4813 47.5032C54.1965 49.0893 53.584 50.5985 52.6829 51.9345C51.7818 53.2704 50.612 54.4037 49.2481 55.2618L32.46 65.9605C31.4061 66.6315 30.2557 67.137 29.0487 67.4595Z" fill="black"/>
</svg>
